HIERARCHY
ROOT root     
{
	OFFSET 0.0000 0.0000 0.0000
	CHANNELS 6 Xposition Yposition Zposition Zrotation Yrotation Xrotation
	JOINT pelvis   
	{
		OFFSET 0.0000 0.0000 0.0000
		CHANNELS 3 Zrotation Yrotation Xrotation
		JOINT thorax   
		{
			OFFSET 0.0000 23.0750 -5.0000
			CHANNELS 3 Zrotation Yrotation Xrotation
			JOINT rclavicle
			{
				OFFSET 0.0000 28.0009 0.0000
				CHANNELS 3 Zrotation Yrotation Xrotation
				JOINT rhumerus 
				{
					OFFSET -18.5725 5.5939 0.0000
					CHANNELS 3 Zrotation Yrotation Xrotation
					JOINT rradius  
					{
						OFFSET -24.8459 0.0000 0.0000
						CHANNELS 3 Zrotation Yrotation Xrotation
						JOINT rhand    
						{
							OFFSET -24.5477 0.0000 0.0000
							CHANNELS 3 Zrotation Yrotation Xrotation
							End Site
							{
								OFFSET -8.1826 0.0000 0.0000
							}
						}
					}
				}
			}
			JOINT lclavicle
			{
				OFFSET 0.0000 28.0009 0.0000
				CHANNELS 3 Zrotation Yrotation Xrotation
				JOINT lhumerus 
				{
					OFFSET 18.5725 5.5939 0.0000
					CHANNELS 3 Zrotation Yrotation Xrotation
					JOINT lradius  
					{
						OFFSET 24.8459 0.0000 0.0000
						CHANNELS 3 Zrotation Yrotation Xrotation
						JOINT lhand    
						{
							OFFSET 24.5477 0.0000 0.0000
							CHANNELS 3 Zrotation Yrotation Xrotation
							End Site
							{
								OFFSET 8.1826 0.0000 0.0000
							}
						}
					}
				}
			}
			JOINT head     
			{
				OFFSET 0.0000 35.2030 0.0000
				CHANNELS 3 Zrotation Yrotation Xrotation
				End Site
				{
					OFFSET 0.0000 11.7343 0.0000
				}
			}
		}
		JOINT rfemur   
		{
			OFFSET -8.2817 0.0000 0.0000
			CHANNELS 3 Zrotation Yrotation Xrotation
			JOINT rtibia   
			{
				OFFSET 0.0000 -43.3627 0.0000
				CHANNELS 3 Zrotation Yrotation Xrotation
				JOINT rfoot    
				{
					OFFSET 0.0000 -38.2947 0.0000
					CHANNELS 3 Zrotation Yrotation Xrotation
					JOINT rtoes    
					{
						OFFSET 0.0000 0.0000 16.6054
						CHANNELS 3 Zrotation Yrotation Xrotation
						End Site
						{
							OFFSET 0.0000 0.0000 5.5351
						}
					}
				}
			}
		}
		JOINT lfemur   
		{
			OFFSET 8.2817 0.0000 0.0000
			CHANNELS 3 Zrotation Yrotation Xrotation
			JOINT ltibia   
			{
				OFFSET 0.0000 -43.3627 0.0000
				CHANNELS 3 Zrotation Yrotation Xrotation
				JOINT lfoot    
				{
					OFFSET 0.0000 -38.2947 0.0000
					CHANNELS 3 Zrotation Yrotation Xrotation
					JOINT ltoes    
					{
						OFFSET 0.0000 0.0000 16.6054
						CHANNELS 3 Zrotation Yrotation Xrotation
						End Site
						{
							OFFSET 0.0000 0.0000 5.5351
						}
					}
				}
			}
		}
	}
}
MOTION
Frames: 21
Frame Time: .0333333
47.807 82.471 14.29 14.0608 -81.0181 9.33863 0 -0 0 16.0221 -19.274 -15.9486 26.8664 -11.5532 -2.01421e-05 58.4467 4.21173 -23.5382 -0 60.2761 -0 -29.881 -4.70967 1.25736 -24.9964 13.1323 7.4331e-05 -39.611 -10.8785 19.1111 -1.89725e-05 -89.6679 1.91031e-05 9.14117 -3.27899 -0.262206 -23.8433 6.49177 -13.7441 5.17756 -1.00714 -32.6658 -0 -0 41.7519 -8.54752e-05 -9.99408 -14.0967 2.45766 1.50802e-06 -14.2999 3.53561 4.67773 -12.5665 -0 -0 53.3593 -0.00010587 12.9935 17.4291 3.95397 1.56188e-06 -30.5269 
46.626 82.785 14.213 15.1561 -81.1936 8.15271 0 -0 0 15.3918 -18.7032 -15.651 26.6994 -11.2217 -9.78082e-05 58.502 4.91742 -21.9202 -0 60.5867 -0 -29.1949 -4.13869 1.07833 -25.2223 13.1357 2.30999e-05 -38.8025 -10.0621 18.0577 5.90209e-06 -86.998 -5.60016e-06 9.44122 -2.83674 -0.2343 -24.2046 6.68227 -13.3341 5.14512 -1.06179 -31.3002 -0 -0 40.6921 5.86357e-05 -9.82176 -13.5061 2.31527 -7.13653e-06 -15.2718 3.1099 4.42271 -14.0494 -0 -0 54.5019 -3.66172e-05 13.6202 16.0348 3.829 5.31407e-06 -29.34 
45.436 83.114 14.143 16.3632 -81.397 6.82325 0 -0 0 14.7105 -18.1148 -15.29 26.5134 -10.8912 -2.01459e-05 58.4667 5.63549 -20.1782 -6.2998e-07 60.9318 -1.07097e-06 -28.366 -3.41167 0.862476 -25.4226 13.1408 5.65359e-05 -37.9394 -9.27132 16.9032 0 -84.4238 0 9.78487 -2.48679 -0.212902 -24.5188 6.88297 -12.9622 5.09171 -1.1594 -29.8663 -0 -0 39.5232 1.14488e-05 -9.55327 -12.7673 2.13 -1.46792e-05 -16.6822 2.66466 4.13064 -15.469 -0 -0 55.4256 9.82838e-05 14.0514 14.6955 3.63284 2.76509e-05 -27.9799 
44.242 83.453 14.076 17.7399 -81.6204 5.31676 0 -0 0 13.982 -17.5098 -14.9014 26.3158 -10.5697 8.43952e-07 58.3413 6.36628 -18.3403 -0 61.3292 -0 -27.4308 -2.55658 0.624094 -25.5856 13.1403 -5.46773e-05 -37.049 -8.47097 15.6447 1.62565e-06 -81.9422 -1.41168e-06 10.1723 -2.24597 -0.199899 -24.771 7.09448 -12.622 5.01184 -1.29438 -28.3952 -0 -0 38.2623 3.57367e-05 -9.18846 -11.8864 1.90821 6.40223e-06 -18.3281 2.20131 3.80752 -16.8527 -0 -0 56.141 -9.48897e-06 14.327 13.4037 3.38815 -2.22894e-05 -26.447 
43.042 83.799 14.016 19.379 -81.8647 3.54023 0 -0 0 13.1871 -16.8838 -14.4843 26.1137 -10.2604 -4.10903e-05 58.1253 7.10366 -16.4296 -0 61.7945 -0 -26.4007 -1.57624 0.369705 -25.705 13.1435 -9.71542e-05 -36.1434 -7.66498 14.2874 -1.50953e-06 -79.5719 1.81265e-06 10.6101 -2.11783 -0.196702 -24.9427 7.31118 -12.3132 4.88957 -1.46097 -26.8969 -0 -0 36.9265 -2.1903e-06 -8.72653 -10.861 1.65672 2.05004e-06 -20.1981 1.71067 3.46055 -18.1949 -0 -0 56.6519 -0.000153498 14.493 12.1577 3.11622 -1.81536e-06 -24.8486 
41.84 84.149 13.961 21.35 -82.1322 1.44041 0 -0 0 12.3256 -16.2303 -14.0608 25.9065 -9.96947 -3.78128e-06 57.8217 7.84655 -14.4646 -0 62.3395 -0 -25.3047 -0.490406 0.110099 -25.7778 13.1596 0.000136299 -35.2388 -6.86018 12.8413 -4.15601e-07 -77.3465 1.00232e-06 11.106 -2.093 -0.203503 -25.0204 7.53012 -12.0304 4.71752 -1.64315 -25.3966 -0 -0 35.5402 5.9412e-07 -8.17961 -9.70704 1.38831 1.00944e-05 -22.1252 1.191 3.09593 -19.5147 -0 -0 56.9659 1.65768e-05 14.5948 10.9519 2.8321 -9.85052e-06 -23.2766 
40.636 84.499 13.913 23.7509 -82.4229 -1.07326 0 -0 0 11.3917 -15.5407 -13.6384 25.7021 -9.69813 -1.9905e-05 57.4312 8.59157 -12.469 -4.90891e-07 62.9829 -8.01333e-07 -24.169 0.676093 -0.144799 -25.8032 13.1982 6.37927e-05 -34.3417 -6.0608 11.3081 -1.02633e-06 -75.2813 1.3307e-06 11.6665 -2.14888 -0.219606 -24.9948 7.74733 -11.7721 4.48743 -1.82677 -23.9137 -0 -0 34.1333 3.64803e-06 -7.56089 -8.43451 1.11541 2.21907e-06 -24.082 0.637606 2.71728 -20.8168 -0 -0 57.0923 2.96781e-05 14.6705 9.77893 2.54605 1.00898e-05 -21.8212 
39.435 84.847 13.87 26.6266 -82.7336 -4.0303 0 -0 0 10.3977 -14.806 -13.2381 25.4943 -9.44847 3.66996e-05 56.9511 9.33636 -10.4585 -0 63.7347 -0 -23.0215 1.89224 -0.38541 -25.7864 13.2675 -4.9896e-06 -33.4639 -5.27826 9.69264 0 -73.4002 0 12.2943 -2.25385 -0.242796 -24.8644 7.95943 -11.5338 4.20238 -1.98867 -22.4772 -0 -0 32.731 1.40033e-06 -6.89528 -7.06007 0.851613 1.01482e-06 -25.9997 0.057804 2.32834 -22.1215 -0 -0 57.0373 -7.89737e-06 14.7455 8.63291 2.26248 1.91849e-05 -20.5423 
38.234 85.19 13.834 30.1023 -83.0554 -7.55508 0 -0 0 9.34266 -14.0184 -12.8591 25.2886 -9.22276 3.02396e-05 56.379 10.0857 -8.45339 -0 64.6015 -0 -21.8886 3.12374 -0.604213 -25.7287 13.3725 0.000113683 -32.6142 -4.52723 7.99741 -7.96573e-07 -71.7062 1.10232e-06 12.993 -2.3702 -0.2699 -24.6268 8.16121 -11.3148 3.85883 -2.11956 -21.0921 -0 -0 31.3574 -4.63374e-07 -6.19823 -5.60302 0.607497 -5.90456e-06 -27.8916 -0.54879 1.92546 -23.4225 -0 -0 56.7996 -3.61797e-05 14.8383 7.51044 1.98325 -5.37778e-06 -19.4727 
37.038 85.526 13.801 34.1265 -83.3971 -11.5858 0 -0 0 8.26376 -13.1719 -12.5246 25.0765 -9.02145 -3.65377e-05 55.7117 10.841 -6.46867 -0 65.5866 -0 -20.7945 4.33596 -0.795984 -25.6415 13.5217 -5.71291e-05 -31.8021 -3.82113 6.22449 0 -70.195 0 13.7556 -2.4595 -0.296687 -24.2934 8.35092 -11.1116 3.48004 -2.18752 -19.7818 -0 -0 30.023 2.68965e-06 -5.50782 -4.0767 0.392792 1.37922e-07 -29.7391 -1.1529 1.51196 -24.7394 -0 -0 56.384 6.59235e-06 14.9454 6.41087 1.70716 -1.24275e-05 -18.619 
35.843 85.854 13.77 38.7473 -83.7454 -16.1707 0 -0 0 7.17626 -12.2635 -12.2342 24.8558 -8.84304 7.36564e-05 54.9469 11.6056 -4.52504 -5.93097e-07 66.6925 -9.01309e-07 -19.7555 5.49692 -0.957874 -25.5306 13.714 0.000158908 -31.0372 -3.17293 4.37359 -6.69548e-07 -68.8693 9.76602e-07 14.5764 -2.48743 -0.318216 -23.8728 8.52405 -10.9233 3.07648 -2.18101 -18.5452 -0 -0 28.7325 -1.67869e-07 -4.84603 -2.49089 0.211098 5.15891e-07 -31.6201 -1.73775 1.08351 -26.0641 -0 -0 55.7888 -2.18228e-05 15.055 5.34239 1.43456 -6.90128e-06 -17.9729 
34.648 86.171 13.739 43.9964 -84.1014 -21.3463 0 -0 0 6.10257 -11.2981 -11.9903 24.6251 -8.68593 -2.43937e-05 54.0818 12.382 -2.6442 -0 67.9152 -0 -18.7833 6.57812 -1.0892 -25.4062 13.9507 -0.000113789 -30.3289 -2.59267 2.44355 -6.2685e-07 -67.7051 9.34513e-07 15.4387 -2.42637 -0.328905 -23.3777 8.67701 -10.7488 2.66482 -2.08787 -17.376 -0 -0 27.4806 -2.44943e-07 -4.23478 -0.851396 0.0630001 -5.55379e-07 -33.6044 -2.2801 0.636848 -27.3903 -0 -0 55.0058 1.96382e-06 15.15 4.31995 1.16837 -2.90031e-06 -17.5086 
33.451 86.476 13.706 49.8723 -84.4412 -27.1124 0 -0 0 5.06167 -10.2775 -11.7934 24.3806 -8.54729 5.0116e-05 53.1181 13.1712 -0.848111 -9.67972e-07 69.2452 -1.40196e-06 -17.8801 7.55745 -1.19051 -25.2717 14.2251 1.93663e-05 -29.6833 -2.08485 0.432378 9.01374e-07 -66.6982 -5.93179e-07 16.3264 -2.26094 -0.324404 -22.8187 8.8064 -10.5871 2.26088 -1.90094 -16.2681 -0 -0 26.2587 -3.36055e-07 -3.69149 0.841614 -0.0543007 -8.37343e-07 -35.7707 -2.75696 0.16979 -28.7112 -0 -0 54.0345 -1.14562e-05 15.2035 3.36644 0.914292 3.71689e-06 -17.1916 
32.251 86.767 13.669 56.3373 -84.768 -33.4314 0 -0 0 4.07863 -9.21438 -11.6512 24.1189 -8.41783 3.08394e-05 52.0665 13.9611 0.826203 -7.46192e-07 70.6755 -1.0524e-06 -17.031 8.4167 -1.26246 -25.1401 14.5397 4.00616e-05 -29.1008 -1.66051 -1.65413 8.74919e-07 -65.8205 -5.66222e-07 17.2257 -1.98648 -0.300891 -22.2091 8.91102 -10.4368 1.88517 -1.61578 -15.2191 -0 -0 25.0563 3.10637e-07 -3.22526 2.56914 -0.1447 -1.52143e-07 -37.9612 -3.14146 -0.317589 -30.0267 -0 -0 52.8795 -2.2013e-05 15.1926 2.50802 0.680803 2.10351e-06 -16.9738 
31.041 87.041 13.629 63.5041 -85.0674 -40.4435 0 -0 0 3.13276 -8.12056 -11.5391 23.8452 -8.31088 -1.32887e-05 50.9218 14.7705 2.39748 -0 72.1762 -0 -16.2756 9.15353 -1.31165 -24.9964 14.8635 7.46924e-05 -28.6002 -1.28318 -3.83359 -7.70485e-07 -65.0747 1.20768e-06 18.1069 -1.61842 -0.257894 -21.5463 8.98446 -10.2988 1.52753 -1.24213 -14.192 -0 -0 23.846 -1.48913e-06 -2.83874 4.38898 -0.217394 1.30609e-06 -40.7544 -3.44069 -0.821902 -31.3029 -0 -0 51.5331 -1.63912e-07 15.0993 1.77156 0.477898 -1.14841e-06 -16.8334 
29.826 87.297 13.582 71.1735 -85.3179 -47.9282 0 -0 0 2.25488 -7.01163 -11.4823 23.553 -8.20614 -1.24265e-05 49.713 15.5659 3.80937 -1.2203e-06 73.7504 -9.1539e-07 -15.5675 9.75741 -1.33698 -24.8598 15.2075 -3.95954e-05 -28.1642 -0.971125 -6.08553 0 -64.4378 -0 18.9647 -1.17607 -0.196389 -20.841 9.02873 -10.1702 1.21299 -0.784505 -13.2061 -0 -0 22.6378 -1.28488e-06 -2.52106 6.23729 -0.274099 1.18093e-06 -43.4957 -3.62936 -1.33541 -32.5643 -0 -0 50.0188 2.8271e-06 14.911 1.17814 0.313702 4.66204e-07 -16.7117 
28.6 87.533 13.529 79.2287 -85.5191 -55.7801 0 -0 0 1.43269 -5.90362 -11.4723 23.2419 -8.10382 6.51135e-05 48.4558 16.3389 5.05721 -0 75.3779 -0 -14.9129 10.2321 -1.34271 -24.7234 15.5622 8.50754e-05 -27.7895 -0.710176 -8.40709 0 -63.9032 0 19.7835 -0.693205 -0.120896 -20.0908 9.04123 -10.0521 0.937499 -0.257305 -12.2482 -0 -0 21.4202 -7.813e-06 -2.26285 8.14526 -0.320797 -1.53713e-06 -46.4491 -3.71718 -1.84459 -33.7985 -0 -0 48.3495 1.69104e-06 14.6263 0.737811 0.1925 1.20344e-07 -16.5845 
27.366 87.748 13.469 87.46 -85.6579 -63.787 0 -0 0 0.655993 -4.81264 -11.513 22.9155 -8.00322 -4.10666e-05 47.1671 17.0772 6.13735 -0 77.0398 -0 -14.3144 10.5818 -1.33253 -24.5873 15.9121 9.73201e-05 -27.4738 -0.477606 -10.7921 8.12673e-07 -63.4629 -5.02536e-07 20.553 -0.207202 -0.0376003 -19.2939 9.02071 -9.94386 0.698097 0.314905 -11.3232 -0 -0 20.2075 4.01098e-06 -2.03557 10.0858 -0.356603 7.2651e-08 -49.3568 -3.7179 -2.33381 -35.0113 -0 -0 46.5435 -2.42736e-06 14.2508 0.445697 0.1132 -6.9054e-07 -16.4372 
26.122 87.94 13.404 95.58 -85.7271 -71.6621 0 -0 0 -0.0874787 -3.7532 -11.6061 22.572 -7.90105 -2.04461e-05 45.8677 17.7654 7.04757 -1.68828e-06 78.7287 -1.38497e-06 -13.7762 10.814 -1.31023 -24.4494 16.255 2.19579e-05 -27.2031 -0.263761 -13.2284 0 -63.1148 0 21.2662 0.2458 0.0461004 -18.4419 8.96696 -9.84508 0.489905 0.9062 -10.4357 -0 -0 19.0166 1.97197e-06 -1.81342 12.0501 -0.378696 2.95096e-06 -52.1567 -3.65185 -2.78445 -36.2008 -0 -0 44.6206 -1.416e-08 13.8015 0.2804 0.0688998 2.3096e-07 -16.2762 
24.869 88.108 13.335 103.302 -85.7162 -79.1195 0 -0 0 -0.813986 -2.7374 -11.7517 22.2154 -7.79663 2.64258e-05 44.5816 18.3887 7.79416 -0 80.4281 -0 -13.302 10.9382 -1.27928 -24.3105 16.5846 0.000129064 -26.9697 -0.0585225 -15.7021 0 -62.8521 0 21.9192 0.635696 0.1231 -17.5312 8.87972 -9.7552 0.304297 1.48085 -9.59544 -0 -0 17.8774 5.09615e-06 -1.5611 14.014 -0.378097 2.93813e-07 -54.7052 -3.54706 -3.17899 -37.3664 -0 -0 42.5946 -4.0758e-07 13.296 0.205703 0.0485994 -1.16343e-07 -16.1223 
23.542 88.259 13.324 121.042 -85.1619 -96.7697 0 -0 0 -2.12263 -0.918811 -11.6929 22.0044 -7.67585 -2.82823e-05 43.2696 18.9848 8.34138 -0 82.1306 -0 -12.9006 10.9684 -1.24378 -24.1127 16.8792 0.000157552 -26.73 0.0943483 -18.2529 0 -62.6531 -0 22.5102 0.936904 0.186496 -16.4531 8.73667 -9.72545 -0.378797 2.72115 -8.74652 -0 -0 17.051 -1.28742e-06 -1.0737 15.8568 -0.293402 3.98824e-06 -57.0945 -3.96325 -2.64652 -38.0712 -0 -0 40.2584 1.24234e-07 12.7874 0.0605002 0.0136998 1.61001e-08 -15.9336 
